<svg width="16" height="16" viewBox="0 0 16 16" fill="none" xmlns="http://www.w3.org/2000/svg">
<rect x="1.77844" y="1.77869" width="1.77773" height="1.77773" fill="#30A66D"/>
<rect x="8.88916" y="1.77869" width="1.77773" height="1.77773" fill="#30A66D"/>
<rect x="0.000366211" y="3.55676" width="1.77773" height="1.77773" fill="#30A66D"/>
<rect x="7.11108" y="3.55676" width="1.77773" height="1.77773" fill="#30A66D"/>
<rect x="7.11108" y="3.55676" width="1.77773" height="1.77773" fill="#30A66D"/>
<rect x="14.2218" y="3.55676" width="1.77773" height="1.77773" fill="#30A66D"/>
<rect x="0.000366211" y="5.33484" width="1.77773" height="1.77773" fill="#30A66D"/>
<rect x="1.77844" y="7.11292" width="1.77773" height="1.77773" fill="#30A66D"/>
<rect x="8.88916" y="7.11292" width="1.77773" height="1.77773" fill="#30A66D"/>
<rect x="3.55493" y="7.11292" width="1.77773" height="1.77773" fill="#30A66D"/>
<rect x="10.6656" y="7.11292" width="1.77773" height="1.77773" fill="#30A66D"/>
<rect x="5.33459" y="7.11292" width="1.77773" height="1.77773" fill="#30A66D"/>
<rect x="12.4453" y="7.11292" width="1.77773" height="1.77773" fill="#30A66D"/>
<rect x="7.11108" y="8.88788" width="1.77773" height="1.77773" fill="#30A66D"/>
<rect x="14.2218" y="8.88788" width="1.77773" height="1.77773" fill="#30A66D"/>
<rect x="7.11108" y="10.666" width="1.77773" height="1.77773" fill="#30A66D"/>
<rect x="14.2218" y="10.666" width="1.77773" height="1.77773" fill="#30A66D"/>
<rect x="5.33459" y="12.444" width="1.77773" height="1.77773" fill="#30A66D"/>
<rect x="12.4453" y="12.444" width="1.77773" height="1.77773" fill="#30A66D"/>
<rect x="3.55493" y="12.444" width="1.77773" height="1.77773" fill="#30A66D"/>
<rect x="10.6656" y="12.444" width="1.77773" height="1.77773" fill="#30A66D"/>
<rect x="3.55493" y="14.2221" width="1.77773" height="1.77773" fill="#30A66D"/>
<rect x="10.6656" y="14.2221" width="1.77773" height="1.77773" fill="#30A66D"/>
<rect x="1.77844" y="12.444" width="1.77773" height="1.77773" fill="#30A66D"/>
<rect x="8.88916" y="12.444" width="1.77773" height="1.77773" fill="#30A66D"/>
<rect x="0.000366211" y="10.666" width="1.77773" height="1.77773" fill="#30A66D"/>
<rect x="7.11108" y="10.666" width="1.77773" height="1.77773" fill="#30A66D"/>
<rect x="3.55493" y="10.666" width="1.77773" height="1.77773" fill="#30A66D"/>
<rect x="10.6656" y="10.666" width="1.77773" height="1.77773" fill="#30A66D"/>
<rect x="3.55493" y="8.88788" width="1.77773" height="1.77773" fill="#30A66D"/>
<rect x="10.6656" y="8.88788" width="1.77773" height="1.77773" fill="#30A66D"/>
<rect x="3.55493" y="5.33484" width="1.77773" height="1.77773" fill="#30A66D"/>
<rect x="10.6656" y="5.33484" width="1.77773" height="1.77773" fill="#30A66D"/>
<rect x="3.55493" y="3.55676" width="1.77773" height="1.77773" fill="#30A66D"/>
<rect x="10.6656" y="3.55676" width="1.77773" height="1.77773" fill="#30A66D"/>
<rect x="3.55493" y="1.77869" width="1.77773" height="1.77773" fill="#30A66D"/>
<rect x="10.6656" y="1.77869" width="1.77773" height="1.77773" fill="#30A66D"/>
<rect x="3.55493" y="0.000610352" width="1.77773" height="1.77773" fill="#30A66D"/>
<rect x="10.6656" y="0.000610352" width="1.77773" height="1.77773" fill="#30A66D"/>
<rect x="5.33459" y="1.77869" width="1.77773" height="1.77773" fill="#30A66D"/>
<rect x="12.4453" y="1.77869" width="1.77773" height="1.77773" fill="#30A66D"/>
</svg>
