<svg width="16" height="16" viewBox="0 0 16 16" fill="none" xmlns="http://www.w3.org/2000/svg">
<rect y="12.0002" width="2" height="2" fill="#FBE32D"/>
<rect y="8.00024" width="2" height="2" fill="#FBE32D"/>
<rect x="14" y="12.0002" width="2" height="2" fill="#FBE32D"/>
<rect x="14" y="8.00024" width="2" height="2" fill="#FBE32D"/>
<rect y="10.0002" width="2" height="2" fill="#FBE32D"/>
<rect y="6.00024" width="2" height="2" fill="#FBE32D"/>
<rect y="4.00024" width="2" height="2" fill="#FBE32D"/>
<rect y="2.00024" width="2" height="2" fill="#FBE32D"/>
<rect x="14" y="10.0002" width="2" height="2" fill="#FBE32D"/>
<rect x="14" y="6.00024" width="2" height="2" fill="#FBE32D"/>
<rect x="4" y="4.00024" width="2" height="2" fill="#FBE32D"/>
<rect x="6" y="4.00024" width="2" height="2" fill="#FBE32D"/>
<rect x="8" y="4.00024" width="2" height="2" fill="#FBE32D"/>
<rect x="10" y="4.00024" width="2" height="2" fill="#FBE32D"/>
<rect x="10" y="6.00024" width="2" height="2" fill="#FBE32D"/>
<rect x="10" y="8.00024" width="2" height="2" fill="#FBE32D"/>
<rect x="10" y="10.0002" width="2" height="2" fill="#FBE32D"/>
<rect x="8" y="10.0002" width="2" height="2" fill="#FBE32D"/>
<rect x="6" y="10.0002" width="2" height="2" fill="#FBE32D"/>
<rect x="4" y="10.0002" width="2" height="2" fill="#FBE32D"/>
<rect x="4" y="8.00024" width="2" height="2" fill="#FBE32D"/>
<rect x="4" y="6.00024" width="2" height="2" fill="#FBE32D"/>
<rect x="14" y="4.00024" width="2" height="2" fill="#FBE32D"/>
<rect x="14" y="2.00024" width="2" height="2" fill="#FBE32D"/>
<rect x="5" y="14.0002" width="2" height="2" fill="#FBE32D"/>
<rect x="5" y="0.000244141" width="2" height="2" fill="#FBE32D"/>
<rect x="11" y="14.0002" width="3" height="2" fill="#FBE32D"/>
<rect x="11" y="0.000244141" width="3" height="2" fill="#FBE32D"/>
<rect x="9" y="14.0002" width="2" height="2" fill="#FBE32D"/>
<rect x="9" y="0.000244141" width="2" height="2" fill="#FBE32D"/>
<rect x="2" y="14.0002" width="3" height="2" fill="#FBE32D"/>
<rect x="2" y="0.000244141" width="3" height="2" fill="#FBE32D"/>
<rect x="7" y="14.0002" width="2" height="2" fill="#FBE32D"/>
<rect x="7" y="0.000244141" width="2" height="2" fill="#FBE32D"/>
</svg>
