<svg width="16" height="16" viewBox="0 0 16 16" fill="none" xmlns="http://www.w3.org/2000/svg">
<rect y="6.85651" width="2" height="2.28571" fill="#0091FF"/>
<rect x="8" y="6.85651" width="2" height="2.28571" fill="#0091FF"/>
<rect x="2" y="6.85651" width="2" height="2.28571" fill="#0091FF"/>
<rect x="10" y="6.85651" width="2" height="2.28571" fill="#0091FF"/>
<rect x="4" y="6.85651" width="2" height="2.28571" fill="#0091FF"/>
<rect x="12" y="6.85651" width="2" height="2.28571" fill="#0091FF"/>
<rect x="10" y="4.57214" width="2" height="2.28571" fill="#0091FF"/>
<rect width="2" height="2.28571" transform="matrix(1 0 0 -1 10 11.4283)" fill="#0091FF"/>
<rect x="8" y="2.28772" width="2" height="2.28571" fill="#0091FF"/>
<rect width="2" height="2.28571" transform="matrix(1 0 0 -1 8 13.7128)" fill="#0091FF"/>
<rect x="6" y="0.000244141" width="2" height="2.28571" fill="#0091FF"/>
<rect width="2" height="2.28571" transform="matrix(1 0 0 -1 6 16.0002)" fill="#0091FF"/>
<rect x="4" y="2.28772" width="2" height="2.28571" fill="#0091FF"/>
<rect width="2" height="2.28571" transform="matrix(1 0 0 -1 4 13.7128)" fill="#0091FF"/>
<rect width="2" height="2.28571" transform="matrix(1 0 0 -1 0 11.4283)" fill="#0091FF"/>
<rect width="2" height="2.28571" transform="matrix(1 0 0 -1 0 6.85651)" fill="#0091FF"/>
<rect x="6" y="4.57214" width="2" height="2.28571" fill="#0091FF"/>
<rect width="2" height="2.28571" transform="matrix(1 0 0 -1 6 11.4283)" fill="#0091FF"/>
<rect x="6" y="6.85651" width="2" height="2.28571" fill="#0091FF"/>
<rect x="14" y="6.85651" width="2" height="2.28571" fill="#0091FF"/>
</svg>
