<svg width="959" height="686" viewBox="0 0 959 686" fill="none" xmlns="http://www.w3.org/2000/svg">
<g style="mix-blend-mode:overlay">
<path d="M227.13 0C101.69 0 0 98.7211 0 220.498C0 342.271 101.69 440.998 227.13 440.998H479.497C493.434 440.998 504.734 451.96 504.734 465.494C504.734 479.028 493.434 489.99 479.497 489.99H17.6659C7.90889 489.99 0 497.679 0 507.14V668.85C0 678.311 7.90889 686 17.6659 686H479.497C604.936 686 706.626 587.273 706.626 465.494C706.626 343.715 604.936 244.998 479.497 244.998H227.13C213.192 244.998 201.894 234.029 201.894 220.498C201.894 206.968 213.192 195.999 227.13 195.999H655.083C655.441 196.002 655.8 196.004 656.159 196.004H731.865C745.808 196.004 757.111 206.973 757.111 220.503V668.85C757.111 678.325 765.017 686 774.778 686H941.333C951.094 686 959 678.325 959 668.85V220.503C959 98.7254 857.306 0.00566991 731.865 0.00566991H706.626L227.13 0Z" fill="white"/>
</g>
</svg>
